<svg width="51" height="51" viewBox="0 0 51 51" fill="none" xmlns="http://www.w3.org/2000/svg">
<circle opacity="0.2" cx="25.5" cy="25.5" r="25.5" fill="#1E2E46"/>
<g clip-path="url(#clip0_116_177)">
<path d="M10.5 25.2935H16.547V38.7976H10.5V25.2935Z" fill="#1E2E46"/>
<path d="M39.4415 29.962C38.7793 29.517 37.9427 29.4312 37.2029 29.733L35.2626 30.525C32.3617 31.7215 28.83 31.232 26.4241 29.2263L28.5446 27.1064C29.0442 26.6068 29.319 25.9422 29.319 25.2359C29.329 22.8978 26.454 21.7084 24.8037 23.3655C24.8037 23.3655 20.8791 27.2907 20.8791 27.2907H18.3082V37.1062C19.827 37.2817 27.1739 38.5223 28.5487 38.4501C31.2582 38.45 33.9142 37.6422 36.1868 36.1017C37.958 34.9011 39.6517 33.7592 39.6688 33.7475L39.7392 33.6999C40.8605 32.6788 40.7122 30.7917 39.4415 29.962Z" fill="#1E2E46"/>
<path d="M37.3884 18.4257C39.1069 18.4257 40.5 17.0326 40.5 15.3142C40.5 13.5957 39.1069 12.2026 37.3884 12.2026C35.6699 12.2026 34.2769 13.5957 34.2769 15.3142C34.2769 17.0326 35.6699 18.4257 37.3884 18.4257Z" fill="#1E2E46"/>
<path d="M34.8053 25.5295C36.5237 25.5295 37.9168 24.1364 37.9168 22.4179C37.9168 20.6995 36.5237 19.3064 34.8053 19.3064C33.0868 19.3064 31.6937 20.6995 31.6937 22.4179C31.6937 24.1364 33.0868 25.5295 34.8053 25.5295Z" fill="#1E2E46"/>
<path d="M26.1751 19.3063C27.8936 19.3063 29.2867 17.9133 29.2867 16.1948C29.2867 14.4763 27.8936 13.0833 26.1751 13.0833C24.4567 13.0833 23.0636 14.4763 23.0636 16.1948C23.0636 17.9133 24.4567 19.3063 26.1751 19.3063Z" fill="#1E2E46"/>
</g>
<defs>
<clipPath id="clip0_116_177">
<rect width="30" height="30" fill="white" transform="translate(10.5 10.5)"/>
</clipPath>
</defs>
</svg>
