<svg width="33" height="33" viewBox="0 0 33 33" fill="none" xmlns="http://www.w3.org/2000/svg">
<circle opacity="0.4" cx="16.5" cy="16.5" r="16.5" fill="#0F1B25"/>
<path d="M24 15C24 10.5817 20.4183 7 16 7C11.5817 7 8 10.5817 8 15C8 19.4183 11.5817 23 16 23C16.5911 23 17.1672 22.9359 17.7218 22.8143C17.6499 22.6749 17.5834 22.5322 17.5223 22.3863C17.2025 21.6228 17.0349 20.7832 17.0049 19.883L17.0046 19.8746L17 19.5926V17.0833C17 16.3398 17.5887 15.6667 18.4 15.6667C19.306 15.6667 20.1569 15.3036 20.9966 14.4293C21.5468 13.8564 22.4563 13.857 23.0057 14.4304C23.2053 14.6387 23.4046 14.8165 23.6033 14.9669C23.7345 15.0661 23.8656 15.1535 23.9968 15.2298C23.9989 15.1535 24 15.0769 24 15ZM15.5081 13.9101C15.5504 13.6769 15.7545 13.5 16 13.5C16.2455 13.5 16.4496 13.6769 16.4919 13.9101L16.5 14V18.5021L16.4919 18.592C16.4496 18.8253 16.2455 19.0021 16 19.0021C15.7545 19.0021 15.5504 18.8253 15.5081 18.592L15.5 18.5021V14L15.5081 13.9101ZM15.25 11.75C15.25 11.3358 15.5858 11 16 11C16.4142 11 16.75 11.3358 16.75 11.75C16.75 12.1642 16.4142 12.5 16 12.5C15.5858 12.5 15.25 12.1642 15.25 11.75ZM24 16.3471C23.6556 16.2024 23.3225 16.0083 23 15.7644C22.7552 15.5792 22.5165 15.3652 22.2837 15.1223C22.1276 14.9594 21.8741 14.9592 21.7178 15.122C20.7233 16.1575 19.6234 16.6667 18.4 16.6667C18.1791 16.6667 18 16.8532 18 17.0833V19.5844L18.0044 19.8497C18.0309 20.6466 18.1783 21.364 18.4447 22C18.5953 22.3595 18.7839 22.693 19.0102 23C19.2847 23.3724 19.6146 23.706 19.9995 24C20.5231 24.4 21.1482 24.7268 21.8735 24.9786C21.9556 25.0071 22.0444 25.0071 22.1265 24.9786C24.687 24.0896 26 22.2663 26 19.5844V17.0833L25.9919 16.9994C25.9546 16.8095 25.7933 16.6667 25.6 16.6667C25.3966 16.6667 25.1966 16.6526 25 16.6245C24.6565 16.5753 24.3233 16.4829 24 16.3471Z" fill="#1E2E46"/>
</svg>
