<?xml version="1.0" standalone="no"?>
<!DOCTYPE svg PUBLIC "-//W3C//DTD SVG 20010904//EN"
 "http://www.w3.org/TR/2001/REC-SVG-20010904/DTD/svg10.dtd">
<svg version="1.0" xmlns="http://www.w3.org/2000/svg"
 width="512.000000pt" height="512.000000pt" viewBox="0 0 512.000000 512.000000"
 preserveAspectRatio="xMidYMid meet">
<metadata>
Created by potrace 1.16, written by Peter Selinger 2001-2019
</metadata>
<g transform="translate(0.000000,512.000000) scale(0.100000,-0.100000)"
fill="#000000" stroke="none">
<path d="M2270 5104 c-341 -52 -677 -201 -950 -421 -88 -71 -246 -233 -311
-318 -265 -346 -409 -758 -409 -1167 l0 -135 -93 -5 c-267 -15 -433 -194 -492
-533 -21 -120 -20 -411 1 -536 31 -178 90 -307 185 -401 90 -88 216 -138 351
-138 l48 0 0 -77 c0 -86 15 -120 66 -154 27 -18 53 -19 384 -19 331 0 357 1
384 19 15 10 37 32 47 47 18 28 19 65 19 989 0 924 -1 961 -19 989 -43 64 -51
66 -324 66 l-248 0 5 33 c67 412 200 693 454 958 315 330 733 510 1187 510
174 0 267 -12 420 -51 462 -120 859 -444 1069 -875 78 -159 139 -363 159 -532
l5 -43 -246 0 c-272 0 -280 -2 -323 -66 -18 -28 -19 -65 -19 -989 0 -924 1
-961 19 -989 43 -64 50 -66 329 -66 l252 0 0 -62 c-1 -187 -41 -300 -139 -399
-74 -74 -159 -115 -262 -129 -40 -5 -176 -10 -300 -10 l-227 0 -28 57 c-38 79
-123 162 -209 204 l-70 34 -275 0 -275 0 -70 -34 c-92 -45 -171 -124 -216
-216 -33 -68 -34 -73 -34 -195 0 -122 1 -127 34 -195 45 -92 124 -171 216
-216 l70 -34 275 0 275 0 70 34 c86 42 171 125 209 203 l28 58 293 0 c335 0
386 8 535 82 69 34 103 60 180 138 78 77 104 111 138 180 72 145 82 204 82
497 l0 253 48 0 c259 0 438 157 519 456 26 95 27 109 27 354 0 243 -1 259 -26
350 -33 123 -64 191 -121 266 -87 114 -202 173 -354 182 l-93 5 0 135 c0 710
-427 1389 -1080 1717 -194 97 -386 158 -601 189 -134 20 -437 20 -569 0z
m-1070 -2849 l0 -755 -150 0 -150 0 0 755 0 755 150 0 150 0 0 -755z m3020 0
l0 -755 -150 0 -150 0 0 755 0 755 150 0 150 0 0 -755z m-3620 0 l0 -495 -47
0 c-125 0 -203 99 -234 302 -15 96 -6 405 14 473 45 157 102 215 210 215 l57
0 0 -495z m4058 481 c60 -31 97 -88 129 -201 20 -68 29 -377 14 -473 -31 -203
-114 -309 -233 -300 l-43 3 -3 493 -2 492 55 0 c31 0 68 -6 83 -14z m-1730
-2161 c46 -27 72 -73 72 -125 0 -52 -26 -98 -72 -125 -30 -18 -51 -20 -218
-20 -167 0 -188 2 -218 20 -114 69 -88 233 42 266 17 4 105 7 196 6 145 -2
169 -5 198 -22z"/>
</g>
</svg>
